<?xml version="1.0" standalone="no"?>
<!DOCTYPE svg PUBLIC "-//W3C//DTD SVG 1.1//EN" "http://www.w3.org/Graphics/SVG/1.1/DTD/svg11.dtd" >
<!--
2013-9-30: Created.
-->
<svg>
<metadata>
Created by iconfont
</metadata>
<defs>

<font id="iconfont" horiz-adv-x="1024" >
  <font-face
    font-family="iconfont"
    font-weight="500"
    font-stretch="normal"
    units-per-em="1024"
    ascent="896"
    descent="-128"
  />
    <missing-glyph />
    
    <glyph glyph-name="deletex" unicode="&#59120;" d="M586.63942975 400.26661808L832.66729257 153.75627548C851.92547514 134.46035229999995 851.8282443 103.05421064999996 832.43548747 83.62341516000004 812.90751137 64.05710238999995 781.70462087 64.08858593000002 762.4398832 83.39111376999995L516.41202039 329.90145638 270.38415759 83.39111376999995C251.125975 64.09519060000002 219.78131015 64.19257012000003 200.38855263 83.62341516000004 180.86057656 103.18967837000002 180.8919603 134.45374762999995 200.15669865 153.75627548L446.18456079 400.26661808 200.15669865 646.7769607C180.8985154 666.0728838699999 180.99574623 697.4790255400001 200.38855263 716.90982102 219.9165294 736.4761338000001 251.1194199 736.44465025 270.38415759 717.14212241L516.41202039 470.63177979 762.4398832 717.14212241C781.69801621 736.43804558 813.04268106 736.34066606 832.43548747 716.90982102 851.96346423 697.3435578 851.93203025 666.07948854 832.66729257 646.7769607L586.63942975 400.26661808 586.63942975 400.26661808Z"  horiz-adv-x="1024" />

    
    <glyph glyph-name="asc" unicode="&#58926;" d="M559.38576548 267.52903098l124.90995217 0 0-89.66427512-124.90995217 0L559.38576548 267.52903098zM559.38576548 751.74526355l317.62494551 0 0-89.6721795L559.38560068 662.07308404 559.38576548 751.74526355 559.38576548 751.74526355zM559.38576548 590.33705283l253.38332097 0 0-89.66411033L559.38576548 500.67294333 559.38576548 590.33705283 559.38576548 590.33705283zM559.38576548 428.9370769l189.14531863 0 0-89.66575662-189.14531863 0C559.38576548 339.27132028000005 559.38576548 428.9370769 559.38576548 428.9370769zM559.38576548 106.12889026000005l60.66816284 0 0-89.67053238-60.66816284 0L559.38576548 106.12889026000005zM382.38336724 453.34000781l1e-8-436.88165075L258.17150696 16.458357060000026 258.17150696 453.34000781 141.83331897 453.34000781 320.26780319 752.16191208 498.71628509 453.34000781 382.38336724 453.34000781z"  horiz-adv-x="1024" />

    
    <glyph glyph-name="desc" unicode="&#58927;" d="M320.14017365 16.45852185000001l178.89378579 299.23476499-116.62490148 0L382.40905796 753.17537283l-124.52228779 0 0-437.48356833L141.25873923 315.69180531999996 320.14017365 16.45852185000001 320.14017365 16.45852185000001zM559.85544253 752.75757157l318.41987175 0-1e-8-89.79355097L559.85527774 662.96402061 559.85544253 752.75757157 559.85544253 752.75757157zM559.85544253 501.33892246L813.87542892 501.33892246l1e-8 89.79223342L559.85544253 591.13115588 559.85544253 501.33892246zM559.85544253 339.71382349l189.62010105 0 0 89.79355096L559.85544253 429.50737527 559.85544253 339.71382349 559.85544253 339.71382349zM559.85544253 178.08493753000005l125.22120365 0L685.07664536 267.87700699000004l-125.22120364 0L559.85544253 178.08493753000005zM559.85544253 16.45852185000001l60.82033036 0 0 89.79206863-60.82033036 0L559.85544253 16.45852185000001z"  horiz-adv-x="1024" />

    
    <glyph glyph-name="sort" unicode="&#58928;" d="M377 201.45000000000005l-60-60V324h-60v-182.55l-60 60L154.55 159 287 26.549999999999955 419.45 159 377 201.45000000000005zM287 741.45L154.55 609 197 566.55l60 60V444h60V626.55l60-60L419.45 609 287 741.45zM482 684h390v-60H482zM482 504h390v-60H482zM482 324h390v-60H482zM482 144h390v-60H482z"  horiz-adv-x="1024" />

    
    <glyph glyph-name="more" unicode="&#58946;" d="M140.96807085 407.47429398c11.46097883-19.74602377 36.86844997-26.51214381 56.61447374-15.18924904L512 573.86561317 826.41745541 392.28504494c19.74602377-11.32289475 45.15349491-4.55677472 56.61447374 15.18924904 11.46097883 19.74602377 4.55677472 45.15349491-15.18924905 56.61447375L533.12686459 657.4064829700001c-6.48995186 3.72827022-13.53224006 5.5233633-20.57452826 5.52336328h-1.10467266c-7.04228819 0-14.08457639-1.79509307-20.57452826-5.52336328L156.1573199 464.08876773c-19.74602377-11.46097883-26.65022788-36.86844997-15.18924905-56.61447375zM867.8426801 191.23462110000003l-334.85389959 193.31771523c-6.48995186 3.72827022-13.53224006 5.5233633-20.57452826 5.52336329h-1.10467267c-7.04228819 0-14.08457639-1.79509307-20.57452826-5.52336329l-334.85389959-193.31771523c-19.74602377-11.32289475-26.51214381-36.86844997-15.18924905-56.61447374 11.46097883-19.74602377 36.86844997-26.51214381 56.61447375-15.18924905L512 301.01146653l314.41745541-181.58056822c19.74602377-11.32289475 45.15349491-4.55677472 56.61447374 15.18924905 11.46097883 19.74602377 4.55677472 45.15349491-15.18924905 56.61447374z"  horiz-adv-x="1024" />

    
    <glyph glyph-name="detail" unicode="&#58939;" d="M512 754.78857422C307.6954956 754.78857422 141.21142578 588.3045044 141.21142578 384s166.48406982-370.78857422 370.78857422-370.78857422 370.78857422 166.48406982 370.78857422 370.78857422S716.3045044 754.78857422 512 754.78857422z m-4.07867432-589.55383301c-15.20233154-8.52813721-27.80914307-12.9776001-37.44964599-12.97760009-8.52813721 0-15.20233154 2.59552002-20.39337159 7.78656005-4.82025146 5.19104004-7.41577148 12.60681153-7.41577148 21.87652588 0 29.66308594 18.16864013 102.33764648 54.87670898 218.02368164 1.85394287 5.56182862 2.59552002 10.38208008 2.59552003 14.46075439 0 4.82025146-2.22473145 7.04498291-6.67419434 7.04498291-4.82025146 0-10.38208008-1.85394287-16.68548584-5.56182861-6.30340576-3.70788575-20.02258301-15.94390869-41.52832032-36.33728027L419.30285644 391.78656006c24.4720459 26.32598877 46.34857177 44.86541748 66.37115479 55.98907471 20.02258301 11.12365723 37.07885742 16.68548584 51.16882324 16.68548583 7.78656006 0 13.71917724-1.4831543 17.79785157-4.82025146 4.07867432-3.33709717 6.30340576-7.78656006 6.30340576-13.71917724 0-7.04498291-7.78656006-36.33728028-23.73046875-87.8768921-25.58441162-84.53979492-38.56201172-135.33782959-38.56201172-152.76489257 0-3.33709717 0.74157715-6.30340576 2.59552002-8.52813721 1.85394287-2.22473145 3.70788575-3.33709717 5.56182862-3.33709717 7.78656006 0 27.80914307 14.83154297 59.69696044 44.12384033l14.08996582-13.71917724c-33.0001831-30.40466309-57.10144043-50.05645752-72.67456055-58.58459473zM593.57348633 561.97851563c-7.41577148-8.15734864-15.57312012-11.86523438-24.84283448-11.86523438-7.41577148 0-13.34838867 2.59552002-18.16864013 7.41577148-4.82025146 4.82025146-7.41577148 11.4944458-7.41577149 19.65179444 0 10.75286865 3.33709717 19.65179443 10.75286865 27.43835449 7.04498291 7.41577148 15.57312012 11.12365723 25.21362305 11.12365722 7.41577148 0 13.71917724-2.59552002 18.53942872-7.41577148 4.82025146-4.82025146 7.41577148-11.12365723 7.41577148-18.91021729-0.37078857-10.01129151-4.07867432-19.28100586-11.4944458-27.43835449z"  horiz-adv-x="1024" />

    
    <glyph glyph-name="export-list" unicode="&#58884;" d="M789.49999971 556.50000029l-180 180c-15.00000029 15.00000029-33.75 22.5-52.49999971 22.5H287c-41.24999971 0-74.99999971-33.75-74.99999971-75.00000058v-599.99999942c0-41.24999971 33.75-74.99999971 74.99999971-75.00000058h450c41.24999971 0 74.99999971 33.75 74.99999971 75.00000058V503.99999971c0 18.74999971-7.49999971 37.50000029-22.5 52.50000058z m-254.99999971-311.25000058v82.50000029s-123.75 0-209.99999971-164.99999971c0 0 0 262.50000029 209.99999971 333.74999971V575.25l164.99999971-164.99999971-164.99999971-165.00000058z"  horiz-adv-x="1024" />

    
    <glyph glyph-name="pie-chart" unicode="&#58914;" d="M540.96785737 412.96785737L540.96785737 754.78857422c187.13235855-1.1587143 340.66200256-154.68835831 341.82071685-341.82071686L540.96785737 412.96785737zM824.8528595 355.03214262999995c0-188.87043-152.95028687-341.82071686-341.82071687-341.82071685-188.87043 0-341.82071686 152.95028687-341.82071685 341.82071686 0 188.87043 152.95028687 341.82071686 341.82071686 341.82071686l-1e-8-341.82071687L824.8528595 355.03214262999995C824.8528595 355.03214262999995 824.8528595 355.03214262999995 824.8528595 355.03214262999995z"  horiz-adv-x="1024" />

    
    <glyph glyph-name="list" unicode="&#58925;" d="M756.39502073 592.2286116600001L689.41854295 592.2286116600001l0-441.78145108c0-40.49821267-51.22547555-44.36791535-51.22547554-44.36791534l-279.4823848 0 0-23.15086245c0-42.43271674 49.01669701-46.54197591 49.01669701-46.54197589L758.36215979 36.386406220000026c49.22361781 0 48.98614497 48.47786907 48.98614498 48.47786907l0 462.99642102C807.34899932 592.2286116600001 756.39502073 592.2286116600001 756.39502073 592.2286116600001zM665.28168006 176.99347322999995L665.28168006 685.8034797c0 0-3.46280386 45.8115025-46.77944943 45.81150251l-354.57114332 0c0 0-47.27869822-1.42622815-47.2786982-45.81150251l0-508.81000716c0 0 1.96852817-48.23831258 49.24653183-48.23831258l351.85686572 0C658.3907903 128.75446608000004 665.28168006 176.99347322999995 665.28168006 176.99347322999995zM263.93039345 638.5324195000001l212.74337986-1e-8 0-46.30380851L263.93039345 592.2286116600001 263.93039345 638.5324195000001zM263.93039345 522.7912997000001L618.50292519 522.7912997000001l0-23.15086244L263.93039345 499.64043726 263.93039345 522.7912997000001zM263.93039345 453.33662874L618.50292519 453.33662874l0-23.13489185L263.93039345 430.2017362 263.93039345 453.33662874zM263.93039345 383.89792836000004L618.50292519 383.89792836000004l0-23.15016855L263.93039345 360.74775981000005 263.93039345 383.89792836000004zM263.93039345 291.29100587000005l0 23.15363996L618.50292519 314.44464583l0-23.15363996L263.93039345 291.29100587000005zM500.3009712 244.98858645999996l118.20264787 0 0-23.15016857L500.3009712 221.83841788999996 500.3009712 244.98858645999996z"  horiz-adv-x="1024" />

    
    <glyph glyph-name="number6" unicode="&#59037;" d="M326.20594 10.21588399999996l-75.562148-66.006098-27.280979 30.710368c-11.945062 13.756087-17.493735 24.545175-18.572644 36.837029-0.539454 6.165193 0.038532 16.877216 0.770649 26.125006l23.119474 262.521628 70.976785 66.006098 52.558271-56.796841L326.20594 10.21588399999996zM366.703552 460.043784l-65.505177-58.33814-57.336296 58.33814 22.541487 268.648289c3.467921 30.710368 8.515673 43.002222 29.939719 61.420736l37.068223 32.251666 59.378516-64.503333L366.703552 460.043784zM649.955642-5.158565999999951l63.116164-72.171292-25.624084-23.003877c-25.624084-23.042409-39.033379-27.666304-82.0356-27.666304L372.059564-128.00003900000002c-50.670181 0-58.607867 3.082597-80.686964 27.666304l-21.9635 23.003877 79.646588 72.171292L649.955642-5.158565999999951zM659.742886 444.669334c30.710368 0 40.15082-3.044064 60.611554-26.125006l29.16907-35.334263L679.664166 321.866394 377.222913 321.866394l-57.56749 61.382204 68.318046 61.459269L659.742886 444.707866zM414.522331 773.158528L352.061219 837.66186l35.411328 33.754432C407.393827 889.873339 422.19029 896 459.027319 896l293.231996 0 60.495957-59.879438-71.246513-62.962034L414.522331 773.158528zM700.972615 306.491944l65.659306 56.796841 35.44986-36.837029c11.829464-12.253321 15.567113-19.959813 16.761619-33.754432 0.809182-9.209257 0.886247-27.666304-0.732117-44.504988l-17.5708-202.64219c-4.469765-36.875561-10.789088-52.211479-32.097536-72.171292l-35.411328-33.792965-59.648243 67.585929L700.972615 306.491944z"  horiz-adv-x="1024" />

    
    <glyph glyph-name="number7" unicode="&#59038;" d="M303.741413 774.434796L247.305873 829.15439 314.380275 896l445.116258 0L624.28003 774.434796 303.741413 774.434796zM607.158707 327.83138499999995l67.989573 56.24488 53.537499-56.24488-35.462873-393.485365-64.443286-62.307887L571.695834-65.69211299999995 607.158707 327.83138499999995zM644.528186 751.6699189999999l132.165934 121.565204-37.369479-423.838534-64.176361-65.320325-57.350711 65.320325L644.528186 751.6699189999999z"  horiz-adv-x="1024" />

    
    <glyph glyph-name="number8" unicode="&#59039;" d="M303.949341 5.630522000000042l-75.716278-64.503333-29.16907 35.334263c-8.47714 9.209257-14.179944 21.501111-15.37445 35.29573-0.539454 6.165193 0.346792 13.79462 1.194506 21.501111l19.651553 231.81126c2.735804 21.501111 8.900998 38.416859 21.655241 50.631648l52.519739 49.128882 52.288544-53.714245L303.949341 5.630522000000042zM344.177225 458.502486l-64.118008-56.796841-30.440641 32.213134c-13.524892 13.79462-22.772682 32.251666-24.005721 46.046286-0.655052 7.667959 0.077065 16.877216 0.655052 27.666304l18.572644 208.768851c2.04222 29.16907 8.63127 41.422391 29.785589 62.923502L312.619143 819.243346l57.952815-66.006098L344.177225 458.502486zM633.440378-5.158565999999951l61.613398-72.171292-31.36542-27.627772c-21.269916-19.959813-30.247979-23.042409-70.129071-23.042409L337.164318-128.00003900000002c-38.378327 0-54.138102 4.623895-69.551084 23.042409l-23.774526 26.125006 82.613587 73.674057L633.440378-5.158565999999951zM673.899458 444.669334l56.180322-62.962034L661.646137 321.866394 356.122287 321.866394l-57.451893 59.879438 68.202448 62.962034L673.899458 444.707866zM393.421705 773.158528L332.501891 837.66186l30.941563 32.251666C381.669306 889.873339 394.963003 896 421.049477 896l277.857546 0c24.583707 0 38.917781-6.126661 54.484894-26.086473l28.822278-30.7489-80.224575-66.006098L393.421705 773.158528zM678.716015 301.90658199999996l68.318046 61.382204 33.792965-35.29573c10.134036-10.750555 15.952437-24.545175 17.301073-39.919625 0.809182-9.170725 0.077065-18.418514-0.539454-29.16907l-20.036878-227.187365c-0.462389-12.291854-2.735804-21.501111-3.891778-26.086473-2.273415-9.209257-7.706491-16.915749-23.389201-30.710368l-38.378327-35.334263-59.494113 66.044631L678.716015 301.90658199999996zM718.9439 754.778546l78.683277 66.006098L823.174195 791.615575c10.288166-12.291854 15.952437-24.583707 17.031346-36.837029 0.655052-7.667959-0.192662-15.335918-0.924779-24.583707l-18.765306-224.104769c-4.315635-38.378327-12.060659-55.294075-33.446172-73.71259l-36.952626-33.754432-57.451893 59.879438L718.9439 754.778546z"  horiz-adv-x="1024" />

    
    <glyph glyph-name="number9" unicode="&#58922;" d="M323.039165 461.54655L258.921157 404.749709l-36.875561 35.334263c-11.829464 12.214789-15.721242 21.462578-16.800151 33.754432-0.924779 10.712023-1.001844 29.16907 0.577987 46.046286l17.5708 202.64219c4.469765 36.837029 10.789088 52.172946 32.097536 72.171292l35.411328 33.754432 59.609711-67.547397L323.039165 461.54655zM609.489449-5.158565999999951l61.035412-66.006098-34.024159-32.251666c-19.76715-19.959813-34.717744-24.583707-71.554772-24.583707L271.752465-128.00003900000002l-60.495957 59.879438 71.246513 62.962034L609.489449-5.158565999999951zM364.423024 321.866394c-30.710368 0-40.343482 4.585362-60.765684 27.627772l-29.16907 35.29573 69.974941 59.91797 302.441253 0 57.451893-59.91797L636.153909 321.866394 364.423024 321.866394zM374.056138 773.158528L311.055571 843.827054l25.508486 24.583707C362.149609 891.414638 374.056138 896 418.561125 896l233.352558 0c50.631648 0 58.607867-3.044064 80.686964-27.627772l22.11763-24.583707-79.800718-70.629993L374.056138 773.158528zM657.423825 306.491944l68.279513 61.420736 54.523426-61.420736-22.695617-267.145523c-3.313791-32.213134-8.515673-42.963689-29.901186-61.382204l-36.952626-33.792965-59.494113 66.006098L657.423825 306.491944zM697.767307 757.8226099999999l75.562148 66.044631 27.396577-32.251666c11.829464-12.291854 17.493735-24.583707 18.418514-35.29573 0.693584-7.706491-0.15413-15.37445-0.770649-26.125006l-23.350669-259.400499-70.591461-70.629993-52.712401 58.33814L697.767307 757.8226099999999z"  horiz-adv-x="1024" />

    
    <glyph glyph-name="number0" unicode="&#58917;" d="M305.535186 8.723386000000005l-78.409237-69.084895-23.619097 24.582355c-11.944405 13.832391-19.265168 27.626253-20.49814 41.458643-0.385304 4.58511 0.577955 10.749964 0.192651 15.296544l27.39507 300.921936 65.347453 59.876145L333.39262 321.89797 305.535186 8.723386000000005zM344.142584 444.694156l-68.198697-62.958571-54.636019 62.958571 22.694369 267.0923c3.005367 18.456032 3.583321 29.167466 4.58511 35.33232 1.849456 13.793861 8.592265 24.582355 21.461398 35.293789l41.304522 36.835003 59.606433-67.543682L344.142584 444.694156zM627.571748-5.109005000000025l66.310711-73.670005-34.137879-30.747209c-14.140634-13.75533-30.631618-18.417501-59.799084-18.417501L329.770769-127.94372199999998c-29.167466 0-46.583178 6.164854-58.411991 18.417501l-27.279479 30.747209 82.609044 73.670005L627.571748-5.109005000000025zM393.692599 773.165284L329.578116 839.167752l29.552769 30.747209C377.471326 888.332463 395.233812 896 418.236423 896l280.924691 0c21.499929 0 42.383371-10.749964 56.023111-26.085038l24.042931-29.205996-80.066041-67.543682L393.692599 773.165284zM680.319779 321.89797l68.275758 61.378828 54.520427-61.378828-22.809959-265.589617c-1.310032-19.958715-3.313609-32.249892-2.928306-36.873533-1.849456-13.75533-8.746387-23.002612-23.002612-35.255259l-44.50254-35.293789-56.023111 61.378828L680.319779 321.89797zM719.466602 751.703885L799.378523 820.788781l18.764274-21.499929c13.63974-15.335075 20.960503-29.167466 22.309065-44.50254 0.539424-6.164854 1.07885-12.291178 0.077061-18.417501l-25.12178-291.674656-69.855502-61.455889-52.979214 61.455889L719.466602 751.703885z"  horiz-adv-x="1024" />

    
    <glyph glyph-name="number1" unicode="&#58919;" d="M416.116778 774.434796L358.155952 829.15439 426.75564 896l220.289268 0L513.315556 774.434796 416.116778 774.434796zM496.194233 327.83138499999995l64.977136 56.24488L617.759438 327.83138499999995 582.410961-67.217398l-66.082967-60.782602L460.883889-67.217398 496.194233 327.83138499999995zM533.563713 751.6699189999999l132.280331 120.001787L628.360168 449.358457l-67.188799-65.320325-54.338274 65.320325L533.563713 751.6699189999999z"  horiz-adv-x="1024" />

    
    <glyph glyph-name="number4" unicode="&#58921;" d="M323.634639 457.817806l-63.990551-60.248634L231.371831 427.693489c-14.854274 15.04326-23.849993 31.636203-25.172892 46.679463-0.52916 5.971947 0.037797 16.555145 0.226783 31.636203L236.625633 832.765392 303.375374 896l53.70973-63.234608L323.634639 457.817806zM647.064729 444.286431l55.108224-61.76052-73.175255-58.736749L380.557126 323.78916300000003c-13.569172 0-22.602687 0-27.251735 1.511885-13.531375 0-30.766868 7.52163-38.968847 15.04326l-38.175107 40.631921 68.261627 63.272405L647.064729 444.248634zM738.533798-67.75136599999996l-65.502436-60.248634-54.957035 60.248634 33.563856 373.511295 64.255131 57.224863 56.204341-57.224863L738.533798-67.75136599999996zM784.41952 457.817806l-65.502436-60.248634-53.596338 61.76052 32.20316 371.923815L764.160256 896l53.860918-64.746493L784.41952 457.817806z"  horiz-adv-x="1024" />

    
    <glyph glyph-name="number5" unicode="&#58923;" d="M344.615008 460.043784l-65.543709-58.33814-28.899343 32.213134c-15.181788 15.335918-22.657085 30.710368-24.121318 47.549052-0.539454 6.165193-1.194506 13.833152-0.462389 23.080942l33.369108 373.032714 111.782657-119.720343L344.615008 460.043784zM627.828565-5.158565999999951l64.541865-70.629993-31.249822-29.16907c-18.341449-18.418514-34.833341-23.042409-70.129071-23.042409L293.174178-128.00003900000002l-57.413361 59.879438 68.163916 62.962034L627.828565-5.158565999999951zM395.477851 773.158528L281.884168 896l449.789368 0 57.798685-64.503333-68.549241-58.33814L395.477851 773.158528zM634.571745 444.669334c36.837029 0 41.730651-3.044064 68.818968-32.290199l27.12685-29.16907L657.575622 321.866394 408.887146 321.866394c-47.587584 0-58.761997 4.585362-84.077821 30.710368l-27.12685 29.16907 71.246513 62.962034L634.571745 444.707866zM678.88407 306.491944l68.433643 59.879438 30.325043-30.710368c11.829464-12.253321 19.535956-30.710368 20.768994-44.504988 0.655052-7.667959 0.192662-19.959813-0.115597-33.792965l-18.726774-207.227552c-2.928467-36.837029-11.790932-58.376672-26.047941-70.629993l-42.693962-38.378327-57.837218 64.503333L678.88407 306.491944z"  horiz-adv-x="1024" />

    
    <glyph glyph-name="number2" unicode="&#59146;" d="M309.935797 10.215885999999955L177.499744-108.04022299999997l32.482861 365.364754c0.770649 9.209257 1.502766 18.457047 3.891778 26.125006 2.427545 7.667959 4.932154 13.794619 9.132192 18.457047 0 0 8.554205 7.667959 22.657085 21.501111l41.037066 39.881093 50.747245-53.714245L309.935797 10.215885999999955zM656.650842-5.158563999999956l56.064724-61.420736-66.776747-61.420736L194.569622-128.0000359999999l138.17739 122.841472L656.650842-5.158563999999956zM690.636469 343.328974c-16.954281-16.877216-30.363576-21.501111-65.659306-21.501111L360.95277 321.827863 305.042175 381.70730100000003l43.695806 44.504987c5.625739 6.126661 12.869841 10.750555 20.268072 13.833152 7.398232 3.044064 13.409295 4.585362 21.077254 4.585362l24.583707 0 265.604224 0 55.872062-59.91797L690.636469 343.328974zM382.877738 773.158528L326.967143 833.076498 392.048462 896l313.191808 0c30.671835 0 45.198572-7.667959 62.26845-27.627771l20.576332-24.583707-78.259419-70.629993L382.877738 773.158528zM725.431277 753.237248l79.762185 70.629993 27.242447-30.710368c3.352324-3.082597 7.089972-10.750555 11.097348-21.501111 1.926623-4.623895 2.35048-9.24779 2.735804-13.833152 0.539454-6.126661-0.038532-16.877216-0.385325-30.710368l-21.578176-227.187364c-2.19635-27.666304-7.359699-38.416859-27.126849-58.338139l-42.578365-39.919625-55.756465 58.338139L725.431277 753.237248z"  horiz-adv-x="1024" />

    
    <glyph glyph-name="number3" unicode="&#58910;" d="M606.286-5.158999999999992l63-70.63-32.636-30.71c-17.07-15.297-36.49-21.501-71.786-21.501H265.505l-55.91 59.88 77.373 62.961h319.318z m38.957 449.828l58.993-59.918-69.744-62.885H316.715L255.91 384.79l71.516 59.918h317.816zM355.517 773.16l-57.413 59.917L366.268 896h302.44c13.834 0 23.159-1.503 26.241-1.503 10.905-1.541 27.204-12.292 40.806-27.705l20.577-24.545-81.458-69.088H355.517z m297.47-469.711l69.59 64.465 27.011-27.628c15.298-16.877 20.962-29.17 22.465-46.085 0.693-7.668 1.348-15.297 0.462-23.004l-22.002-239.518c-2.196-27.627-8.785-39.92-30.094-59.879l-35.68-30.71-57.954 66.044 26.203 296.315z m40.228 452.872l80.032 67.547 20.307-21.5c11.984-13.834 19.305-27.667 20.653-43.003 0.54-6.127-0.038-16.877-1.541-35.296l-20.422-222.602c-2.042-29.169-7.244-39.92-24.199-56.797l-45.352-42.963-57.337 58.338 27.86 296.276z"  horiz-adv-x="1024" />

    
    <glyph glyph-name="userStar" unicode="&#59005;" d="M790.09143067 151.0211792l15.44952392-130.39398193-113.09051514 56.23626708-113.09051513-56.23626708 15.44952392 130.39398193L508.91009521 246.80822752999995l122.97821046 24.71923829 60.56213378 115.56243897 60.5621338-115.56243897 122.97821044-24.71923828L790.09143067 151.0211792zM610.87695313 482.87695313c-8.03375244-62.41607666-33.98895263-82.19146729-33.98895264-82.19146729L577.50598145 334.56152344c0 0 6.79779052-3.70788575 30.28106689-14.21356201l-3.08990479-5.56182862-177.36053467-33.37097168 123.59619141-127.92205811-11.74163818-92.69714355L175.20037842 60.79595946999996c-18.53942872 0-33.37097168 14.83154297-33.37097168 33.37097168 0 0 0 0 0 0l0 0c0 0 0 122.3602295 88.98925781 166.8548584 56.23626709 27.80914307 34.60693359 5.56182862 103.82080078 33.98895264 69.21386719 28.42712403 85.89935302 38.93280029 85.89935303 38.93280029l0.61798096 66.12396241c0 0-25.9552002 19.77539063-33.98895264 82.19146728-16.06750489-4.94384766-21.62933349 19.15740967-22.86529541 33.98895264-0.61798096 14.83154297-9.26971435 60.56213379 10.50567626 56.23626709-4.3258667 30.2810669-6.79779052 58.09020997-5.5618286 72.30377197 4.94384766 51.29241943 54.38232422 104.43878174 129.77600097 108.76464844C588.62963867 750.46270752 624.47253418 696.6983642600001 629.41638184 645.4059448200001c1.23596192-14.83154297-1.85394287-42.02270508-5.56182861-72.30377197 19.77539063 4.3258667 11.12365723-41.40472412 10.50567626-56.23626709C632.50628662 501.41638184 627.56243896 477.93310547 610.87695313 482.87695313z"  horiz-adv-x="1024" />

    
    <glyph glyph-name="download" unicode="&#60067;" d="M697.39419875 155.93895787999998q0 10.75286358-7.83952633 18.64535909t-18.6453591 7.83952634-18.64535909-7.83952634-7.83952635-18.64535909 7.83952635-18.64535909 18.64535909-7.83952635 18.6453591 7.83952635 7.83952634 18.64535909zM803.33374122 155.93895787999998q0 10.75286358-7.83952634 18.64535909t-18.6453591 7.83952634-18.64535911-7.83952634-7.83952633-18.64535909 7.83952633-18.64535909 18.64535911-7.83952635 18.6453591 7.83952635 7.83952634 18.64535909zM856.30351209 248.63605726000003l0-132.42442789q0-16.52656889-11.60037982-28.12694871t-28.1269487-11.6003798l-609.15236787 0q-16.52656889 0-28.12694869 11.6003798t-11.60037981 28.12694871l0 132.42442789q0 16.52656889 11.60037981 28.1269487t28.12694869 11.60037982l192.43917806 0 55.88310883-56.2538967q23.99530665-23.20075962 56.25389668-23.20075962t56.25389669 23.20075962l56.25389669 56.2538967 192.0154203 0q16.52656889 0 28.1269487-11.60037982t11.60037981-28.1269487zM721.81326317 484.08668964q7.04497929-16.95032664-5.77370531-28.97446494l-185.39419876-185.39419874q-7.46873776-7.83952634-18.6453591-7.83952635t-18.6453591 7.83952635l-185.39419875 185.39419874q-12.81868461 12.02413828-5.77370532 28.97446494 7.04497929 16.15578032 24.41906441 16.15578032l105.93954246 0 0 185.39419876q0 10.75286358 7.83952634 18.64535909t18.64535909 7.83952634l105.93954246 0q10.75286358 0 18.64535909-7.83952634t7.83952634-18.64535909l0-185.39419876 105.93954246 0q17.37408513 0 24.41906441-16.15578032z"  horiz-adv-x="1024" />

    
    <glyph glyph-name="total" unicode="&#58980;" d="M690.9977352 559.19152169c5.28640657 0 0 0 0 0z m-5.28640729-5.28640657zM442.53661407 421.74494433l-237.88830655-237.88830654c10.57281387-15.85922043 21.145627-26.4320343 31.71844089-42.29125473L479.54146224 384.7400969l-37.00484817 37.00484743zM299.80363014 559.19152169l-158.59220436-158.59220437c0-21.145627 0-47.5776613 5.28640657-68.72328831l190.31064596 190.31064524-37.00484817 37.00484744z m491.63583425 68.72328904l-523.35427512-523.35427512c148.01939122-126.87376349 364.76207076-121.58735692 507.49505469 15.85922043 137.44657736 142.73298393 142.73298393 364.76207076 15.85922043 507.49505469z m-37.00484744 37.00484744C616.98803958 786.50701509 405.53176663 786.50701509 268.08518927 664.91965817L511.2599031 416.45853776l243.17471385 248.46112041z m-523.35427512-37.00484744C194.07549366 585.62355599 167.64346008 532.75948812 151.78423965 479.89541952L268.08518927 596.19636986l-37.00484744 31.71844087zM373.81332575 490.46823337L157.07064621 279.01196042000004c5.28640657-15.85922043 10.57281387-37.00484744 21.14562701-52.8640679L405.53176663 453.46338593 373.81332575 490.46823337z"  horiz-adv-x="1025" />

    
    <glyph glyph-name="up" unicode="&#58951;" d="M211.76666667-25.100000000000023c-17.1 0-37.2 9.9-37.2 37.9V247.29999999999995c0 28 20.1 38 37.2 38 17.2 0 37.2-10 37.2-38v-234.5c0-27.9-19.9-37.9-37.2-37.9z m581 0.1c-17.1 0-37.1 10-37.1 37.9V415.8c0 28 20.1 38 37.2 38 10.4 0 20.4-3.9 27-10.5 6.6-6.6 10.1-16.1 10.1-27.4V13c0-28-20-38-37.2-38z m-290.5 0.1c-17.1 0-37.1 9.9-37.1 38V282c0 27.8 20 37.7 37.1 37.7 17.2 0 37.3-9.9 37.3-37.7v-269c0-28-20.1-37.9-37.3-37.9zM230.36666667 375.70000000000005c-10 0-20.1 0.3-30.1 0.8-25.4 1.2-36.5 23.4-36 43.4 0.1 6 2.3 35.9 32.3 35.9 11.5-0.6 20.7-0.8 29.8-0.8 179.1 0 360.6 85 497.9 233.4l23.6 25.3h-96.6c-26.2 0-35.5 21.3-35.5 39.7 0 18.3 9.3 39.6 35.5 39.6h173.9c10.9 0 21.3-5.6 28.7-15.1 5.5-5.7 8.6-23.9 8.5-37.6v-189c0-28-20-37.9-37.1-37.9-17.2 0-37.2 9.9-37.2 37.9V645l-25.9-26.4C611.36666667 464.3 417.56666667 375.70000000000005 230.36666667 375.70000000000005z"  horiz-adv-x="1024" />

    
    <glyph glyph-name="down" unicode="&#59163;" d="M793.42933334-25.087999999999965c-17.408 0-37.376 10.24-37.376 37.888v234.496c0 28.16 19.968 37.888 37.376 37.888 16.896 0 37.376-10.24 37.376-37.888v-234.496c0-28.16-19.968-37.888-37.376-37.888zM175.44533334 12.799999999999955V415.744c0 11.264 3.584 20.992 10.24 27.648 6.656 6.656 16.384 10.752 27.136 10.752 16.896 0 37.376-10.24 37.376-37.888v-402.944c0-27.648-19.968-37.888-36.864-37.888-17.92-0.512-37.888 9.728-37.888 37.376zM465.74933334 12.799999999999955V281.6c0 27.648 19.968 37.888 37.376 37.888 16.896 0 36.864-9.728 36.864-37.888v-268.8c0-28.16-19.968-37.888-36.864-37.888-17.408 0-37.376 10.24-37.376 37.888zM161.10933334 616.448c-7.68 6.656-14.848 13.312-22.016 20.48-18.432 17.408-12.288 41.472 1.024 56.32 4.096 4.608 25.088 25.6 48.128 6.144 8.192-8.192 15.36-14.336 22.016-19.968 134.656-117.76 327.68-172.544 528.896-150.528l34.304 3.584-73.216 63.488c-19.968 17.408-12.8 39.424-1.024 53.248s32.768 24.064 52.736 6.656l131.584-114.176c8.192-7.168 12.288-18.432 11.776-30.208 0.512-7.68-9.216-23.552-18.432-33.792l-123.904-142.848c-18.432-20.992-39.936-15.36-52.736-4.096-12.8 11.264-21.504 31.744-3.072 53.248l61.44 70.656-36.864-3.072c-215.04-17.92-419.328 42.496-560.64 164.864z"  horiz-adv-x="1024" />

    
    <glyph glyph-name="pull-push" unicode="&#58880;" d="M861.70800781 354.33691406c8.46386719 8.2265625 11.78613281 19.06347655 11.07421875 29.66308594 0.6328125 10.67871094-2.61035156 21.59472655-11.07421875 29.7421875l-361.01953125 354.53320313c-15.18749999 14.95019531-39.94628906 14.95019531-55.29199219-1e-8-15.18749999-14.95019531-15.1875-39.31347656 0-54.26367187L781.41992187 384 445.39648438 54.067382810000026c-15.18749999-14.95019531-15.1875-39.39257813-1e-8-54.34277343 15.18749999-14.95019531 39.94628906-14.95019531 55.13378907-1e-8L861.70800781 354.33691406zM589.8359375 384c0.79101563 10.67871094-2.61035156 21.59472655-10.99511719 29.7421875l-361.01953125 354.53320312c-15.18749999 14.95019531-39.94628906 14.95019531-55.29199219 0-15.18749999-14.95019531-15.10839844-39.31347655 0-54.26367187L498.55273437 384 162.37109375 54.225585939999974c-15.10839844-14.95019531-15.1875-39.39257813 1e-8-54.34277344 15.34570312-14.95019531 40.10449219-14.95019531 55.29199218 0L578.91992188 354.33691406c8.30566406 8.2265625 11.70703125 19.06347656 10.91601562 29.66308594z"  horiz-adv-x="1024" />

    
    <glyph glyph-name="persons" unicode="&#58979;" d="M390.78834605 319.88254451c6.23315871 2.35798359 13.80680501 4.51391637 22.80566991 10.16916633 13.11447323 8.24063122 23.21918607 25.23317635-1.16088689 46.05527222C331.76923347 492.34195912 361.12888109 569.5724394399999 373.38156057 598.66485858c-10.2350682 3.9801836-21.87652588 6.33454621-35.20174027 6.33454621l-4.19092477 0c-77.19427049 0-97.71075547-70.2086717-99.27646815-109.587577-1.0356009-92.85284579 55.73053658-129.7702074 55.73053658-129.7702074s3.53625119-4.88253236 3.53625118-19.04419362c0-3.2284677-2.10451483-12.90011108-5.73635994-15.82151949C256.55781282 305.11762763 150.79978657 278.38681304 143.40936196 223.11324442c-3.90703976-15.97070396-1.57005787-32.55914748-0.80096126-47.93166519 17.30539799-13.28828037 72.74842858-24.55388009 72.74842858-24.55388009s4.60299254 13.98423314 9.27550793 37.09478974C231.5382744 221.88355887 277.75721502 277.16581785999995 390.78834605 319.88254451L390.78834605 319.88254451zM880.75430643 223.59918022c-7.59247541 55.20476997-116.16617738 81.89937472-148.6565262 107.52434134-3.73033583 2.92068422-5.87323308 12.57711947-5.87323308 15.79689682 0 14.15007412 3.60070467 19.02464033 3.60070468 19.02464032s58.21380615 36.86811626 57.12606309 129.60291803c-1.58671439 39.33183253-26.12828314 109.45142805-101.73294246 109.45142806l-0.00434518 0-4.29520905 0c-16.29731655 0-29.99983729-3.09811235-41.69778227-8.16314221 16.17709994-54.15685773 35.61380804-153.5310924-46.17114365-220.12674808-32.0862472-47.83462285 74.7957319-75.8914411 58.18266571-68.42570008C747.94826757 264.81899286 773.97806001 231.47409224 781.06577052 196.9979968c5.91813326-28.77449691 9.27550793-46.37102186 9.27550791-46.37102186s72.46164679 11.05992794 91.20240212 25.10064841C882.35188377 191.08348452999996 884.74607718 207.64875375999998 880.75430643 223.59918022L880.75430643 223.59918022zM565.36241424 329.55780888000004c-4.57112789 3.63256931-7.20068514 15.65133333-7.20068515 19.65179443 0 17.58348942 4.40094173 23.62763286 4.40094174 23.62763286-0.08038581-0.05214214 71.50281071 38.65688146 70.09497285 161.07866763-1.9495368 48.88977706-32.05003738 136.02798879-124.81380701 136.0279888l-0.01303554 0-5.26273549 0c-97.0553577 0-122.86789119-87.13748752-124.82684254-136.0279888-1.31007135-115.24717211 70.07904052-161.07866765 70.07904052-161.07866763s8.65704417-9.87369418 8.65704417-27.458632c0-4.00480628-6.86900317-12.18388081-11.4328891-15.82151949-39.84021842-31.85160757-183.29556584-63.95378709-192.59497225-132.55981207-7.20068514-29.10545468-49.79212582-75.2650112 91.82159007-93.84789169 39.01173771-5.1178962 92.00408757-8.1435889 163.56628239-8.1435889 328.42960059 0 260.52604615 63.6271745 251.29543842 100.93125701C749.82755733 264.54017723000004 605.2156682 297.70764971000006 565.36241424 329.55780888000004L565.36241424 329.55780888000004z"  horiz-adv-x="1025" />

    
    <glyph glyph-name="person" unicode="&#59045;" d="M813.4208 179.73119999999994l-156.3456 60.9024s-29.856 11.5776-41.3952 22.9056c-7.4304 7.3728-6.912 24.5568-0.3264 46.6368 6.5856 22.0608 86.7072 111.6864 86.7072 193.1136 0 125.7024-82.7136 227.6544-184.6464 227.6544-101.952 0-184.5696-101.952-184.5696-227.6544 0-78.0096 71.424-170.976 80.2176-187.8144 8.8128-16.9344 6.6816-42.7008-0.2496-50.4576-10.4448-11.7312-48.672-23.4432-48.672-23.4432l-140.9472-62.784c-32.928-11.7888-58.752-42.8352-58.752-77.9328v-16.5888c0-38.2272 31.0464-61.6512 69.1968-61.6512h569.184c38.1504 0 69.2544 23.424 69.2544 61.6512v16.5888c0.096 35.1168-25.728 67.104-58.656 78.8736z m0 0"  horiz-adv-x="1024" />

    
    <glyph glyph-name="refresh" unicode="&#59036;" d="M878.33911133 421.07885742l-134.27181245 169.12593842c-14.83154297 18.53942872-42.26989747 18.53942872-57.10144041-1e-8L553.43562317 421.07885742C543.05354309 408.4720459 552.74039459 389.19104004 569.05509186 389.19104004l52.65197753-1e-8c-1.4831543-98.62976075-1.4831543-224.0026474-174.31697845-324.11556243-4.44946289-2.96630859-2.22473145-9.64050293 2.96630859-8.89892577 330.78975678 51.16882325 357.48653412 272.9467392 358.22811128 332.27291106l54.87670897 0C879.82226563 389.19104004 888.72119141 408.4720459 878.33911133 421.07885742L878.33911133 421.07885742zM455.54743958 378.80895996000004L402.89546203 378.80895996000004c1.4831543 98.62976075 1.4831543 224.0026474 174.31697847 324.11556244 4.44946289 2.96630859 2.22473145 9.64050293-2.96630861 8.89892577C243.41002655 660.65462495 216.71324921 438.13513184 215.97167205 379.55053711000005L161.09496307 379.55053711000005c-16.31469727 0-25.9552002-19.28100586-15.57312011-31.88781739l134.22546386-169.12593842c14.83154297-18.53942872 42.26989747-18.53942872 57.10144043 1e-8l134.27181244 169.12593841C480.76106263 359.5279541 471.86213684 378.80895996000004 455.54743958 378.80895996000004L455.54743958 378.80895996000004zM455.54743958 378.80895996000004"  horiz-adv-x="1025" />

    
    <glyph glyph-name="refresh-type02" unicode="&#58911;" d="M848.02714539 476.69714356L708.98143005 476.69714356c-19.11878586 0-34.76142883 15.64264297-34.76142883 34.76142883 0 19.11878586 15.64264297 34.76142883 34.76142883 34.76142883l56.77700043 0C712.45757294 629.64743042 618.60171508 685.26571656 512 685.26571656c-166.27550125 0-301.26571656-134.9902153-301.26571656-301.26571656 0-166.27550125 134.9902153-301.26571656 301.26571656-301.26571656 162.22000122 0 294.89278793 128.61728669 300.68635941 289.67857362l0.57935715 0c0 19.11878586 15.64264297 34.76142883 34.76142883 34.76142883 19.11878586 0 34.76142883-15.64264297 34.76142883-34.76142883 0-2.31742859 0-4.63485718-0.57935715-6.37292863C872.93950272 169.63785552000002 710.71950149 13.211425780000013 512 13.211425780000013 307.48692703 13.211425780000013 141.21142578 179.48692702999995 141.21142578 384 141.21142578 588.5130729699999 307.48692703 754.78857422 512 754.78857422c123.98242951 0 234.06028747-60.83250046 301.26571656-154.68835831L813.26571656 650.50428772c0 19.11878586 15.64264297 34.76142883 34.76142883 34.76142884 19.11878586 0 34.76142883-15.64264297 34.76142883-34.76142884l0-139.04571533C882.78857422 492.33978652 867.14593124 476.69714356 848.02714539 476.69714356z"  horiz-adv-x="1024" />

    
    <glyph glyph-name="module2" unicode="&#58915;" d="M241.11010742 238.42840576000003c8.98956299 1.3595581 18.28399658 1.6973877 26.91925049 4.26818848 25.02410888 7.41577148 31.58294677 26.63909912 12.78808594 44.28863525-25.60089112 24.06005859-54.06921387 45.0302124-81.31805421 67.32696533C184.75024414 366.39990234000004 170.05053711 378.61120604999996 155.21899414 390.52587891c-12.87872315 10.29968262-15.86151123 24.83459473-8.00079346 37.07885742 24.30725098 37.94403076 48.46618653 76.41540528 77.1157837 110.96466065 19.04205323 22.95593262 38.80920411 15.86975098 49.75158691-12.82104493 2.99102783-7.83599854 4.53186036-16.22406006 6.95434571-24.29901123 7.17681885-23.98590088 22.29675293-32.57171631 45.31860351-22.74169922 39.55078125 16.90795898 72.72399903 42.84667969 95.58105468 79.86785889 16.47949219 26.6885376 9.37683106 44.69238281-20.08850097 55.30517578-13.63677979 4.9520874-28.27880859 7.31689453-41.29760742 13.3895874-20.01434326 9.35211182-25.54321289 27.01812744-8.84124756 40.20996094 37.58148193 29.7454834 77.58544922 56.73065185 118.45458984 81.79595947 15.73791504 9.64874268 32.60467529 0 43.93432618-15.0869751 21.25854492-28.21289063 42.28637695-56.61529541 63.84979247-84.5892334 7.95135498-10.30792237 15.836792-21.50573731 26.1694336-28.88031005 9.37683106-6.69891357 23.35968018-14.08172607 32.95898437-11.67572022 17.01507568 4.25170898 23.15368653 20.41809083 21.8270874 38.57849122-0.60150146 8.23974609-1.06292724 17.07275391 1.17004395 24.83459472 6.65771484 23.18664551 29.80316162 34.68109131 50.7321167 23.30200195 40.06164551-21.76940918 71.99890137-52.61901856 88.42895508-96.24023437 14.23828125-37.79571533 1.22772217-54.47296143-38.84216309-57.22503662-11.53564453-0.82397461-30.29754638-6.66595459-32.13500977-13.727417-2.67791748-10.48095703 3.19702148-28.42712403 11.74163819-35.61218261C774.55950928 463.92553711 811.33349609 437.55834961 847.55541992 410.66381836c39.7732544-29.57244873 43.29986573-44.28039551 15.44128419-86.0559082-19.12445068-28.68255615-38.77624512-57.47222901-61.79809572-82.95776368-25.37017823-28.12225342-50.13885498-21.76116943-56.72241211 15.35064698-11.32141114 63.82507325-50.55908203 64.45953369-89.81323241 25.02410888-21.69525146-21.80236817-39.89685059-48.50738526-54.26696778-75.87158203-13.65325927-26.00463867-1.95281982-43.82720948 26.20239258-51.76208496 17.95440674-5.05920411 44.49462891-5.89141846 44.4039917-28.22937012-0.08239747-15.20233154-16.5701294-33.3380127-30.20690918-44.76654052-23.97766114-20.09674073-50.76507568-37.07885742-77.49481201-53.55834961-34.60693359-21.3079834-51.08642578-16.88323974-75.65734863 16.35589599C461.73754883 79.39306640999996 435.6340332 114.47790526999995 409.08557128 149.16723633000004a65.09399414 65.09399414 0 0 1-18.87725829 16.52893067c-18.46527099 10.5633545-33.49456787 1.91986084-35.20019531-19.33044434-3.3782959-42.0803833-31.68182373-59.76287842-70.3756714-41.89086914-40.00396729 18.47351075-66.93145752 51.14410401-84.16076659 90.88439941-12.12890625 27.96569825 5.83374023 46.49688721 40.63842773 43.06915283z"  horiz-adv-x="1024" />

    
    <glyph glyph-name="delete" unicode="&#59212;" d="M181.26451625 597.05806406h670.76129063c12.38709656 0 22.29677437 9.90967781 22.29677343 22.29677438s-9.90967781 22.29677437-22.29677343 22.29677437H181.26451625c-12.38709656 0-22.29677437-9.90967781-22.29677437-22.29677437s9.90967781-22.29677437 22.29677437-22.29677438M367.0709675 530.16774188v-387.71612907c0-12.38709656 9.90967781-22.29677437 22.29677437-22.29677437s22.29677437 9.90967781 22.29677438 22.29677437V530.16774188c0 12.38709656-9.90967781 22.29677437-22.29677438 22.29677437-11.76774188 0-22.29677437-9.90967781-22.29677437-22.29677437M501.4709675 530.16774188v-387.71612907c0-12.38709656 9.90967781-22.29677437 22.29677437-22.29677437s22.29677437 9.90967781 22.29677438 22.29677437V530.16774188c0 12.38709656-9.90967781 22.29677437-22.29677438 22.29677437s-22.29677437-9.90967781-22.29677437-22.29677437M620.38709656 530.16774188v-387.71612907c0-12.38709656 9.90967781-22.29677437 22.29677438-22.29677437s22.29677437 9.90967781 22.29677437 22.29677437V530.16774188c0 12.38709656-9.90967781 22.29677437-22.29677437 22.29677437S620.38709656 542.55483844 620.38709656 530.16774188M739.92258031 604.4903221899999v-506.63225813c0-12.38709656-9.90967781-22.29677437-22.29677343-22.29677343h-402.58064532c-12.38709656 0-22.29677437 9.90967781-22.29677437 22.29677343V604.4903221899999c0 12.38709656-9.90967781 22.29677437-22.29677438 22.29677437s-22.29677437-9.90967781-22.29677437-22.29677437v-506.63225813c0-37.16129063 29.7290325-66.89032219 66.89032312-66.89032218h402.58064531c37.16129063 0 66.89032219 29.7290325 66.89032219 66.89032218V604.4903221899999c0 12.38709656-9.90967781 22.29677437-22.29677437 22.29677437s-22.29677437-9.90967781-22.29677438-22.29677437zM397.41935469 634.21935469v44.59354875c0 20.43870938 16.72258031 37.16129063 37.16129062 37.16128968h164.1290325c20.43870938 0 37.16129063-16.72258031 37.16128969-37.16128968v-44.59354875c0-12.38709656 9.90967781-22.29677437 22.29677438-22.29677438s22.29677437 9.90967781 22.29677437 22.29677438v44.59354875c0 45.21290344-36.54193594 81.75483844-81.75483844 81.75483843H434.58064531c-45.21290344 0-81.75483844-36.54193594-81.75483843-81.75483843v-44.59354875c0-12.38709656 9.90967781-22.29677437 22.29677343-22.29677438 11.76774188 0 22.29677437 9.90967781 22.29677438 22.29677438z"  horiz-adv-x="1024" />

    
    <glyph glyph-name="module" unicode="&#58940;" d="M271.66176758 257.10666853L271.66176758 421.94539572l-37.669519 0 0 26.05658153 37.669519 0L271.66176758 468.11178053l39.93503331 0 0-20.10901228 37.66951899 1e-8 0-26.05658152-37.66951899 0 0-164.83951822L271.66176758 257.10666853zM235.69099018 266.45329988000003L235.69099018 412.59955461l29.73942667 0 0-146.14625473L235.69099018 266.45329988000003zM317.54437013 266.45329988000003L317.54437013 412.59955461l29.73942666 0 0-146.14625473L317.54437013 266.45329988000003zM376.73944122 422.51217002l-1e-8 10.19560663L354.08113156 432.70777665 354.08113156 458.19916592l22.65830966 0-1e-8 10.4793889 39.65204207 0 0-10.4793889 37.38573671 0 0 10.4793889 39.36905005 0 0-10.4793889 22.94130089 0 0-25.49059825-22.94130089 0 0-10.19560664-39.36905005-1e-8 0 10.19560665-37.38573672 0 0-10.19560664L376.73944122 422.51296025zM354.08113156 286.56231292999996c10.38216042 0 19.72879178 0.56677428 28.03989484 1.69874083 8.30636084 1.1335478 15.01120934 3.49154838 20.10901228 7.08111702L354.08113156 295.34217077999995l0 25.77359027 58.62829679 0 0 9.06284987 42.48433067 0 0-9.06284987 60.89460215 0 0-25.77359027-39.36905005 0 23.79106719-18.41027147 15.57798286 0-8.49686583-19.25924675-38.23629249 0-27.18933907 23.22508316c-6.79733477-6.98784053-17.13522766-12.55518848-31.01367946-16.7107404-13.87845179-4.15080892-32.90371705-6.32383776-57.07026174-6.51434276L354.0819218 286.56231292999996zM465.67314793 355.38779763l-9.0636401-22.09232637L362.86098941 333.29547126 362.86098941 419.39688938 507.30771231 419.39688938l0-86.10141812L465.67314793 333.29547126l0 31.72194975-62.31035093 0 0-9.62962337L465.67314793 355.38779763zM403.362797 387.10816612L465.67314793 387.10816612l0 9.62962338-62.31035093 0L403.362797 387.10816612zM557.15615203 257.95643406l0 164.83872796-39.36905004 1e-8 0 25.77359027 39.36905004 0 0 20.10901227 41.63456437 0 0-20.10901227 39.65125104 0 0-25.77359027-39.65125104 0 0-164.83872797L557.15615203 257.95643406zM519.76962507 267.02007416000004L519.76962507 413.16553789l31.15517546 0 0-146.1454645L519.76962507 267.02007416000004zM605.30426891 267.02007416000004L605.30426891 413.16553789l31.15517545 0 0-146.1454645L605.30426891 267.02007416000004zM735.02356549 383.14311997000004c0.75253703-7.36410905 2.07579958-14.25867231 3.96583641-20.67578656 1.88529382-6.42106625 4.15080892-12.46270299 6.79733476-18.12648921 3.20855713 6.60682901 5.75706347 13.54645002 7.64710029 20.81728258 1.88608483 7.26608954 3.11528063 15.15191435 3.68205413 23.64878094l-65.70862357 0 0-130.85205415-50.9811965-1e-8 0 24.92382398 8.21387458 0L648.63994636 468.11178053l149.82751864 0-11.89592873-26.34036378L691.40647727 441.77141676l-1e-8-28.03989484 105.92743917 0c0.75174603-19.44975251-1.18176729-37.66951899-5.80686347-54.66325064-4.62825869-16.99373243-12.13465322-32.57092504-22.5160234-46.73236808 3.77454039-3.7792834 7.73958655-7.31984153 11.89592873-10.62167516 4.15080892-3.30578639 8.68183834-6.5633525 13.59466953-9.77111938l0-34.2704561c-18.88376924 8.12059808-35.12101186 17.9359842-48.7156814 29.45643466-13.97568105-11.51966019-30.21292368-21.33504633-48.7156814-29.45643466l0 34.2704561c4.71837344 3.20855713 9.20592637 6.46612402 13.45396376 9.77111938 4.24882842 3.30183363 8.25814133 6.84160151 12.03742472 10.62167516-7.55382381 10.19560664-13.55040278 21.19355033-17.98499395 32.99620254-4.43854316 11.79790922-7.41232779 24.4013172-8.92135387 37.81022399L735.02356549 383.14232973000003zM523.17263994-1.5153586000000132c-50.69029972 0-99.86920267 9.93000537-146.16996898 29.51334916-44.71743577 18.91380698-84.87538407 45.9885268-119.35926993 80.47241266-34.48467611 34.48388586-61.55939593 74.64262442-80.47320291 119.35926992-19.58334377 46.29997607-29.5125589 95.47887823-29.5125589 146.16996898s9.93000537 99.86920267 29.5125589 146.16996899c18.91380698 44.71664475 45.9885268 84.87538407 80.47320291 119.35926992 34.48388586 34.48388586 74.64183417 61.55860492 119.35926993 80.47241266C423.30343729 739.58384569 472.48234022 749.51306082 523.17263994 749.51306082c50.69029972 0 99.86920267-9.93000537 146.16917874-29.5125589 44.71664475-18.91380698 84.87538407-45.9885268 119.35926993-80.47241268s61.55860492-74.64262442 80.47241267-119.35926993c19.58334377-46.29997607 29.51334915-95.47887823 29.51334914-146.16996898s-9.93000537-99.86920267-29.51334914-146.16996897c-18.91380698-44.71664475-45.9885268-84.87538407-80.47241267-119.35926993s-74.64262442-61.55860492-119.35926993-80.47241267C623.0418426 8.413856529999975 573.86293966-1.5153586000000132 523.17263994-1.5153586000000132zM523.17263994 733.70346719c-48.56390992 0-95.670175-9.50947087-140.01134148-28.26439109-42.83293219-18.11621295-81.30162568-44.05343223-114.33893321-77.09074053s-58.97452681-71.50600104-77.09074054-114.33893323C172.97670372 469.66902611 163.46723283 422.56276102 163.46723283 373.9988511c0-48.5631189 9.50947087-95.670175 28.2643911-140.01134147 18.11621295-42.83293219 44.05343223-81.30162568 77.09074053-114.33893322s71.50600104-58.97452681 114.33893323-77.09074054c44.34116724-18.75492098 91.44743234-28.26439109 140.01134148-28.26439109s95.66938399 9.50947087 140.01055123 28.26439109c42.83293219 18.11621295 81.30241594 44.05343223 114.33972347 77.09074054 33.03651729 33.03651729 58.97373656 71.50600104 77.08994951 114.33893322 18.75492098 44.34116724 28.26439109 91.44822258 28.26439111 140.01134147 0 48.56390992-9.50947087 95.670175-28.26439111 140.01134149-18.11621295 42.83293219-44.05343223 81.30162568-77.08994951 114.33893322-33.03730753 33.03730753-71.50679206 58.97373656-114.33972347 77.09074054C618.84202393 724.19478733 571.73654908 733.70346719 523.17263994 733.70346719z"  horiz-adv-x="1029" />

    
    <glyph glyph-name="public" unicode="&#59496;" d="M661.37075118 355.47780227A397.91318437 397.91318437 0 0 0 540.52219773 112.32606354999996V355.47780227h120.84855345z m2.42438661 57.04439546H540.52219773v129.91861193a526.64812545 526.64812545 0 0 1 91.52773361 15.21659313A397.49961244 397.49961244 0 0 0 663.78087691 412.52219773z m54.94801482-57.04439547h105.71752699a317.73728562 317.73728562 0 0 1 0 57.04439547h-103.60688473a454.70088045 454.70088045 0 0 1-34.2266373 162.49096223 524.79418257 524.79418257 0 0 1 53.87843173 23.98716886 315.45550996 315.45550996 0 0 1-46.71936036 40.74395981c-10.73860777-4.86303482-21.63408736-9.32675858-32.68643875-13.36264956a28.52219773 28.52219773 0 0 1-50.5983795-15.31642071 469.71781771 469.71781771 0 0 0-69.97921295-11.39461822V696.4606796099999a317.73728562 317.73728562 0 0 1-57.04439547 0v-98.27323377a469.83190689 469.83190689 0 0 0-116.67005155 18.68203964 28.52219773 28.52219773 0 1 1-16.05799715-54.73409806A526.96186979 526.96186979 0 0 1 483.47780227 541.11452788V412.52219773H199.53932039a317.73728562 317.73728562 0 0 1 0-57.04439546H483.47780227v-283.93848188a317.73728562 317.73728562 0 0 1 105.24691011 8.15734863A454.81496963 454.81496963 0 0 1 718.7431526 355.47780227zM512 13.211425780000013C307.21061857 13.211425780000013 141.21142578 179.21061856999995 141.21142578 384S307.21061857 754.78857422 512 754.78857422s370.78857422-165.99919279 370.78857422-370.78857422-165.99919279-370.78857422-370.78857422-370.78857422z"  horiz-adv-x="1024" />

    
    <glyph glyph-name="share" unicode="&#58941;" d="M794.95280358 36.38571166999998H229.04719642A64.66148474 64.66148474 0 0 0 164.38571167 101.04719641999998V666.95280358A64.66148474 64.66148474 0 0 0 229.04719642 731.61428833h565.90560716A64.66148474 64.66148474 0 0 0 859.61428833 666.95280358v-565.90560716A64.66148474 64.66148474 0 0 0 794.95280358 36.38571166999998zM463.21202979 396.30153806l116.4725668 59.62586948a10.8204751 10.8204751 0 0 0 11.41290015-0.95833526C639.8070582 418.43907972 683.62910981 451.41452065 683.62910981 451.41452065c52.59517429 38.08075354 27.99209818 93.41153889 27.99209818 93.41153891-27.59133963 61.99557101-88.24524103 47.46372543-94.96229988 45.62546434a11.32577865 11.32577865 0 0 1-1.10644134-0.36591019c-49.35425901-19.06215664-54.05881375-62.2917832-54.01525267-78.72287515a10.89017177 10.89017177 0 0 0-5.88069276-9.74888141L442.30289932 443.24253511a10.95115705 10.95115705 0 0 0-12.05759838 1.32424546c-36.59097783 30.71899716-77.39863036 13.93941986-77.39862968 13.93941985-51.5497182-18.76594446-51.5497182-70.0717223-51.54971819-70.07172229 0-60.9849626 52.73456829-76.52741591 52.73456897-76.5274166 38.44666306-11.18638463 64.53080282 4.80909974 74.92438314 13.21631289a10.87274761 10.87274761 0 0 0 11.70040024 1.28068437L555.56068777 268.99978407000003a10.94244495 10.94244495 0 0 0 6.01137467-9.95797276c-0.58371296-51.7413847 38.09817771-70.68157219 38.0981777-70.68157218C667.07604873 153.99956882000004 705.17422575 213.59058929000003 705.17422575 213.59058929000003c35.80688558 57.79632049-13.11176722 99.67556602-18.59170143 104.09261999-0.29621286 0.23522759-0.6011378 0.46174311-0.87121375 0.67083449-45.01561447 29.53414638-81.89409307 7.6841055-94.89260186-2.30871696a10.86403552 10.86403552 0 0 0-11.44774914-1.10644136l-116.04567202 57.63950233a10.85532343 10.85532343 0 0 0-6.02879951 9.94926066v3.81591684a10.83789927 10.83789927 0 0 0 5.91554175 9.95797278z"  horiz-adv-x="1024" />

    
    <glyph glyph-name="mine" unicode="&#58906;" d="M118.83886719 384c1.78417969 130.31542969 24.41601563 238.21875001 90.58886719 302.57226563C273.78124999 752.74511719 381.68457031 775.37695313 512 777.16113281c130.31542969-1.78417969 238.21875001-24.41601563 302.57226563-90.58886719C880.74511719 622.21875001 903.37695313 514.31542969 905.16113281 384c-1.78417969-130.31542969-24.41601563-238.21875001-90.58886719-302.57226563C750.21875001 15.254882810000026 642.31542969-7.376953129999947 512-9.161132810000026c-130.31542969 1.78417969-238.21875001 24.41601563-302.57226563 90.58886719C143.25488281 145.78124999 120.62304687 253.68457031000003 118.83886719 384zM663.91015625 167.81542968999997c28.70507813 0 45.61523438 32.89746094 28.32714844 55.81933593C651.04296875 278.26757812000005 585.70507813 313.60839844 512 313.60839844S372.95703125 278.26757812000005 331.76269531 223.63476562000005c-17.28808594-22.921875-0.37792969-55.81933594 28.32714844-55.81933593h303.8203125zM512 600.18457031c-68.765625 0-124.50585938-55.74023438-124.50585938-124.50585937S443.234375 351.17285156 512 351.17285156s124.50585938 55.74023438 124.50585938 124.50585938c0 68.75683594-55.74023438 124.50585938-124.50585938 124.50585937z m40.17480469-208.78417968c-9.18457031-12.17285156-23.73925781-20.05664063-40.16601563-20.05664062s-30.99023438 7.875-40.17480469 20.05664061c-3.84960938 5.10644531-0.08789063 12.4453125 6.31054688 12.44531251h67.7109375c6.3984375 0 10.16894531-7.33886719 6.31933594-12.44531251z"  horiz-adv-x="1024" />

    
    <glyph glyph-name="setting" unicode="&#58918;" d="M879.74693688 429.3923276C880.39093798 424.0256511 880.85930261 418.61994401 881.32766724 413.19472131 882.08875931 403.53470346 882.81082153 393.87468488 882.81082153 384.01951492 882.81082153 374.16434497 882.08875931 364.50432710999996 881.32766724 354.84430925000004 880.85930261 349.43860219 880.39093798 344.01337947 879.74693688 338.66621789 879.74693688 338.66621789 879.74693688 338.66621789 879.76645253 338.66621789 878.02960063 324.5372215 875.41456497 310.72046892000003 872.15552893 297.11838264999994 837.10625084 288.45363883000005 803.75479482 264.52801868999995 782.56129987 227.81994984000005 761.36780565 191.11188099000003 757.32816191 150.24707669999998 767.3199385 115.58810283000003 757.13300979 105.88905441999998 746.36062622 96.85352201 735.11987802 88.36441537999997 735.11987802 88.38393028999997 735.10036238 88.38393028999997 735.10036238 88.40344593999998 717.57572405 75.17214823999996 698.88017381 63.42400483999995 679.16983388 53.37368276999996 679.07225783 53.315137280000044 678.95516612 53.256591800000024 678.85759079 53.21756123 669.21708787 48.299733710000055 659.32288734 43.81124096999997 649.19450486 39.75208158999999 648.37486657 39.420323579999945 647.51619844 39.16662597000004 646.69656016 38.834867970000005 636.97799683 35.00989125000001 627.10331194 31.516672539999945 616.99444438 28.530848300000002 591.97597273 54.64217002999999 554.50681181 71.62038404999998 512.02224732 71.62038404999998 469.53768282 71.62038404999998 432.0685219 54.62265511999999 407.05005025 28.530848300000002 407.05005025 28.530848300000002 407.05005025 28.530848300000002 407.05005025 28.530848300000002 396.94118269 31.516672539999945 387.06649781 35.00989125000001 377.34793446 38.834867970000005 376.50878127 39.16662597000004 375.66962806 39.420323579999945 374.83047485 39.75208158999999 364.72160729 43.81124096999997 354.82740676 48.299733710000055 345.18690384 53.21756123 345.06981286 53.256591800000024 344.9722368 53.315137280000044 344.87466075 53.37368276999996 325.16432083 63.42400483999995 306.46877058 75.17214823999996 288.94413225 88.40344593999998 288.92461661 88.38393028999997 288.92461661 88.38393028999997 288.92461661 88.36441537999997 277.68386841 96.85352201 266.89196919 105.88905441999998 256.70504122 115.58810283000003 266.71633273 150.24707669999998 262.67668897 191.11188099000003 241.48319475 227.81994984000005 220.28969982 264.52801868999995 186.91872813 288.45363883000005 151.88896569 297.11838264999994 148.62992967 310.72046892000003 146.014894 324.5372215 144.2780421 338.64670297 144.29755775 338.64670297 144.29755775 338.64670297 144.29755775 338.64670297 143.65355666 344.01337947 143.18519202 349.43860219 142.69731248 354.84430925000004 141.95573533 364.50432710999996 141.2336731 374.16434497 141.2336731 384.01951492 141.2336731 393.87468488 141.95573533 403.53470346 142.69731248 413.19472131 143.18519202 418.61994401 143.65355666 424.0256511 144.29755775 429.3923276 144.29755775 429.3923276 144.29755775 429.3923276 144.2780421 429.3923276 146.014894 443.50180834 148.62992967 457.33807729 151.88896569 470.92064791 186.91872813 479.58539174 220.27018489 503.51101188 241.46367911 540.21908072 262.65717333 576.92714957 266.6968178 617.77243822 256.70504122 652.45092773 266.89196919 662.1499761499999 277.66435349 671.1659929 288.90510169 679.6746152000001 288.90510169 679.65510026 288.92461661 679.63558462 288.92461661 679.61606971 306.44925566 692.8473674100001 325.16432083 704.61502572 344.87466075 714.68486272 344.9722368 714.72389329 345.06981286 714.76292312 345.16738891 714.82146862 354.82740676 719.73929614 364.72160729 724.2277895899999 374.84998977 728.28694899 375.66962806 728.61870699 376.50878127 728.87240459 377.32841881 729.2041626 387.04698288 733.02913931 396.94118269 736.52235802 407.06956589 739.50818227 432.08803682 713.41637544 469.55719774 696.43816146 512.02224732 696.43816146 554.48729689 696.43816146 591.9564578 713.41637544 616.97492874 739.50818227 627.10331194 736.52235802 636.97799683 733.02913931 646.71607581 729.2041626 647.53571338 728.87240459 648.37486657 728.61870699 649.19450486 728.28694899 659.32288734 724.2277895899999 669.21708787 719.73929614 678.87710571 714.82146862 678.97468177 714.76292312 679.07225783 714.72389329 679.16983388 714.68486272 698.88017381 704.61502572 717.57572405 692.8473674100001 735.11987802 679.61606971 735.11987802 679.63558462 735.11987802 679.65510026 735.13939294 679.6746152000001 746.38014114 671.1659929 757.15252543 662.1499761499999 767.33945341 652.45092773 757.34767683 617.77243822 761.38732131 576.92714957 782.58081552 540.21908072 803.77430973 503.51101188 837.12576649 479.58539174 872.13601329 470.92064791 875.41456497 457.33807729 878.02960063 443.52132399 879.74693688 429.3923276 879.74693688 429.3923276 879.74693688 429.3923276 879.74693688 429.3923276ZM838.82358781 440.61356088C803.07176316 455.44510385 770.6960655 482.84442777 748.81953962 520.74292348 727.0405898 558.46578199 719.46869676 599.9941023 724.34749373 638.22435529 695.36743944 662.4036737399999 662.32822648 681.91886155 626.20561326 695.16967418 595.508222 671.71241868 555.67772302 657.44681566 512.02224732 657.44681566 468.36677161 657.44681566 428.53627262 671.71241868 397.83888137 695.16967418 361.71626814 681.91886155 328.67705519 662.4036737399999 299.67748527 638.22435529 304.57579786 599.9941023 296.98438918 558.46578199 275.20543936 520.74292348 253.34842913 482.84442777 220.97273147 455.44510385 185.22090681 440.61356088 182.03993118 422.21073806 180.26404945 403.33955136 180.26404945 384.01951492 180.26404945 364.69947922999995 182.03993118 345.82829176999996 185.22090681 327.42546968 220.97273147 312.61344163 253.34842913 285.19460279 275.24446993 247.31562272999997 297.02341976 209.59276349000004 304.59531279 168.04492826 299.69700091 129.79515962999994 328.67705519 105.63535681999997 361.71626814 86.12016828000003 397.81936646 72.86935567 428.51675771 96.32661188999998 468.36677161 110.61172982999994 512.02224732 110.61172982999994 555.67772302 110.61172982999994 595.52773692 96.32661188999998 626.22512818 72.86935567 662.32822648 86.12016828000003 695.34792452 105.63535681999997 724.34749373 129.79515962999994 719.42966692 168.04492826 727.02107487 209.59276349000004 748.8000247 247.31562272999997 770.67655058 285.19460279 803.05224751 312.61344163 838.82358781 327.44498461 841.9850478 345.82829176999996 843.78044518 364.69947922999995 843.78044518 384.01951492 843.78044518 403.33955136 841.9850478 422.21073806 838.82358781 440.61356088ZM512.02224732 247.60835017C436.67410633 247.60835017 375.59156692 308.69088887 375.59156692 384.03903056 375.59156692 459.36765663 436.67410633 520.45019531 512.02224732 520.45019531 587.35087337 520.45019531 648.43341207 459.36765663 648.43341207 384.03903056 648.43341207 308.69088887 587.35087337 247.60835017 512.02224732 247.60835017ZM512.02224732 481.36127348C458.25790406 481.36127348 414.70000441 437.78385817 414.70000441 384.03903056 414.70000441 330.2746873 458.25790406 286.69727201 512.02224732 286.69727201 565.76707566 286.69727201 609.34449023 330.2746873 609.34449023 384.03903056 609.34449023 437.78385817 565.76707566 481.36127348 512.02224732 481.36127348Z"  horiz-adv-x="1025" />

    
    <glyph glyph-name="dropdown" unicode="&#58978;" d="M512 751.03125c-202.7025 0-367.03125-164.32453125-367.03125-367.03125s164.32875-367.03125 367.03125-367.03125 367.03125 164.32453125 367.03125 367.03125-164.32875 367.03125-367.03125 367.03125z m0-684.01125c-174.7828125 0-316.97578125 142.1971875-316.97578125 316.98S337.2171875 700.98 512 700.98c174.79125 0 316.9884375-142.20140625 316.9884375-316.98S686.79125 67.01999999999998 512 67.01999999999998zM607.80359375 458.3090625L511.8734375 354.91593750000004 415.69859375 456.1153125c-9.90984375 8.2265625-25.75546875 7.96078125-35.386875-0.57796875-9.63140625-8.53875-9.41625-22.123125 0.4978125-30.34125l114.10875-116.08734375c9.91828125-8.22234375 25.7596875-7.96078125 35.39109375 0.57796875l113.37890625 118.8590625c9.6271875 8.53875 9.41625 22.11890625-0.49359375 30.34546875-9.91828125 8.22234375-25.76390625 7.96078125-35.39109375-0.5821875z"  horiz-adv-x="1024" />

    
    <glyph glyph-name="linechart" unicode="&#59084;" d="M833.2132031 89.18788212000004H253.26936536C293.57502209 133.18969038 313.99186082 173.67135470000005 313.99186082 210.10485238c0 25.16903428 4.75219556 150.8382001 96.80397939 150.83820012h2.28809364c7.39230367 0 182.51950224 17.60072371 182.51950293 128.13326637 0 34.14540336 7.04028922 145.73399008 96.80397869 145.73399075h52.80217044a26.40108523 26.40108523 0 0 1 0 52.80216977h-52.80217044c-90.81973287 0-149.60614915-77.97120472-149.60614915-198.53616052 0-51.39411261-97.50800831-71.9869589-133.23747707-75.33109592-90.11570393 0-148.37409888-80.43530594-148.37409887-203.64037057 0-21.82489723-15.31262937-50.16206165-44.00180826-82.19537892V705.2132031a26.40108523 26.40108523 0 0 1-52.80217045 1e-8V62.78679690000001a26.40108523 26.40108523 0 0 1 26.40108522-26.40108523H833.2132031a26.40108523 26.40108523 0 0 1 1e-8 52.80217045zM639.60524502 546.80669177v-404.8166392a26.40108523 26.40108523 0 0 1 52.80217045 0v404.8166392a26.40108523 26.40108523 0 0 1-52.80217045-1e-8zM727.60886221 546.80669177v-404.8166392a26.40108523 26.40108523 0 0 1 52.80217046 0v404.8166392a26.40108523 26.40108523 0 0 1-52.80217046-1e-8zM551.60162783 335.59801066v-193.60795809a26.40108523 26.40108523 0 0 1 52.80217045 0v193.60795809a26.40108523 26.40108523 0 0 1-52.80217044-1e-8zM463.59801066 282.79584021000005v-140.80578764a26.40108523 26.40108523 0 0 1 52.80217043 0v140.80578764a26.40108523 26.40108523 0 0 1-52.80217043 0zM375.59439345 282.79584021000005v-140.80578764a26.40108523 26.40108523 0 0 1 52.80216977 0v140.80578764a26.40108523 26.40108523 0 0 1-52.80216977 0z"  horiz-adv-x="1024" />

    
    <glyph glyph-name="edit" unicode="&#59255;" d="M762.32348633 543.19189453L671.76867676 633.66430664c-16.06750489 16.06750489-16.06750489 42.1875-1e-8 58.25500489l49.19128419 49.19128417c16.06750489 16.06750489 42.1875 16.06750489 58.25500489 0l90.4724121-90.47241211c16.06750489-16.06750489 16.06750489-42.1875 0-58.25500488l-49.19128418-49.19128418c-16.06750489-16.14990234-42.10510254-16.14990234-58.17260742 0zM709.09472656 432.28491211c15.49072266 15.49072266 19.36340333 36.66687012 8.65173341 47.29614258L607.66345215 589.7464599699999c-10.62927247 10.62927247-31.80541992 6.7565918-47.29614258-8.65173341L157.11413574 188.55322265999996c-7.74536133-7.74536133-12.60681153-17.63305664-13.59558105-27.60314942l0.16479492-110.24780273c-1.97753906-20.76416016 14.3371582-37.07885742 35.10131836-35.10131836l110.24780273-0.90637207c9.97009278 0.98876953 19.94018555 5.85021973 27.60314942 13.59558106l392.45910644 403.99475097zM839.03552247 120.57531738H551.38598633c-11.04125977 0-21.58813477-4.36706543-29.3334961-12.19482421-14.08996583-14.17236328-37.32604981-38.15002442-56.68945312-58.25500489-12.52441406-13.01879883-3.29589844-34.68933106 14.74914551-34.68933106h358.67614746c23.07128906 0 41.94030762 18.86901856 41.94030762 41.94030762v21.67053224c-0.16479492 22.82409668-18.78662109 41.52832031-41.69311523 41.5283203z"  horiz-adv-x="1024" />

    


  </font>
</defs>
</svg>
